<?xml version="1.0" encoding="UTF-8" standalone="no"?>
<!-- Created with Inkscape (http://www.inkscape.org/) -->

<svg
   width="210mm"
   height="297mm"
   viewBox="0 0 210 297"
   version="1.1"
   id="svg5"
   inkscape:version="1.1.2 (0a00cf5339, 2022-02-04)"
   sodipodi:docname="logo1.svg"
   xmlns:inkscape="http://www.inkscape.org/namespaces/inkscape"
   xmlns:sodipodi="http://sodipodi.sourceforge.net/DTD/sodipodi-0.dtd"
   xmlns="http://www.w3.org/2000/svg"
   xmlns:svg="http://www.w3.org/2000/svg">
  <sodipodi:namedview
     id="namedview7"
     pagecolor="#ffffff"
     bordercolor="#666666"
     borderopacity="1.0"
     inkscape:pageshadow="2"
     inkscape:pageopacity="0.0"
     inkscape:pagecheckerboard="0"
     inkscape:document-units="mm"
     showgrid="false"
     inkscape:zoom="0.25905311"
     inkscape:cx="-472.876"
     inkscape:cy="449.71473"
     inkscape:window-width="1206"
     inkscape:window-height="736"
     inkscape:window-x="0"
     inkscape:window-y="0"
     inkscape:window-maximized="1"
     inkscape:current-layer="layer1" />
  <defs
     id="defs2" />
  <g
     inkscape:label="Layer 1"
     inkscape:groupmode="layer"
     id="layer1">
    <circle
       id="path1096"
       style="fill:#000000;stroke:#000000;stroke-width:0.571221"
       cx="219.11581"
       cy="61.801571"
       inkscape:export-filename="/home/gauteh/met/sfy/sfy-code/hardware/logo/text7465.png"
       inkscape:export-xdpi="96"
       inkscape:export-ydpi="96"
       r="0.06725163" />
    <circle
       id="path1098"
       style="fill:#000000;stroke:#000000;stroke-width:0.571221"
       cx="219.11581"
       cy="61.801571"
       inkscape:export-filename="/home/gauteh/met/sfy/sfy-code/hardware/logo/text7465.png"
       inkscape:export-xdpi="96"
       inkscape:export-ydpi="96"
       r="0.06725163" />
    <circle
       id="path2132"
       style="fill:#000000;stroke:#000000;stroke-width:0.571221"
       cx="115.91348"
       cy="89.123741"
       inkscape:export-filename="/home/gauteh/met/sfy/sfy-code/hardware/logo/text7465.png"
       inkscape:export-xdpi="96"
       inkscape:export-ydpi="96"
       r="0.0103997" />
    <circle
       id="path2134"
       style="fill:#000000;stroke:#000000;stroke-width:0.571221"
       cx="115.91348"
       cy="89.123741"
       inkscape:export-filename="/home/gauteh/met/sfy/sfy-code/hardware/logo/text7465.png"
       inkscape:export-xdpi="96"
       inkscape:export-ydpi="96"
       r="0.0103997" />
    <circle
       id="path2150"
       style="fill:#000000;stroke:#000000;stroke-width:0.571221"
       cx="96.821556"
       cy="93.252853"
       inkscape:export-filename="/home/gauteh/met/sfy/sfy-code/hardware/logo/text7465.png"
       inkscape:export-xdpi="96"
       inkscape:export-ydpi="96"
       r="0.02742287" />
    <path
       style="fill:#000000;fill-opacity:1;fill-rule:nonzero;stroke:none;stroke-width:0.571221"
       id="path2229"
       d="m 79.064947,90.982928 c 7.379695,-1.500261 14.624714,-3.547998 21.838243,-5.693191 8.34237,-2.650936 16.38231,-6.263455 23.99472,-10.580573 1.34834,-0.764661 2.66436,-1.584946 3.99653,-2.377418 5.02411,-3.343257 9.74776,-7.119065 14.15241,-11.241889 2.48097,-2.32222 3.0308,-2.955905 5.33386,-5.353956 3.03156,-3.342879 5.93745,-6.797265 8.85338,-10.240822 0.16281,-0.168226 0.28905,-0.382009 0.48845,-0.504691 0.10043,-0.06179 0.47147,-0.01382 0.35354,-0.01338 -3.47739,0.01231 -6.9569,-0.07459 -10.43211,0.04883 -0.1119,0.0041 0.0976,0.206438 0.10863,0.317879 0.0476,0.480089 -0.0491,0.997205 -0.10954,1.467445 -0.579,3.265405 -1.33175,6.494473 -1.91196,9.759472 -0.53379,3.548953 -0.63979,7.189203 -0.14284,10.751768 0.10845,0.777473 0.27761,1.545262 0.41642,2.317891 0.83811,3.92139 2.25732,7.749031 4.5685,11.053437 0.4486,0.641402 0.96214,1.234855 1.44321,1.852288 0.56953,0.571519 1.09769,1.187518 1.70862,1.714567 2.84819,2.457132 6.40148,4.144273 9.94777,5.317957 1.02083,0.337853 2.06609,0.596869 3.09914,0.895302 5.5624,1.437691 11.27721,2.088112 16.99641,2.471025 4.8339,0.274895 9.67977,0.143613 14.51833,0.140958 0.67398,-3.72e-4 1.34673,-0.02781 2.01901,-0.07224 0.2092,-0.01338 0.38984,-0.03513 0.56124,-0.153004 0,0 -10.66308,-1.420378 -10.66308,-1.420378 v 0 c -0.1222,-0.06296 -0.26031,-0.02263 -0.39352,-0.02094 -0.35534,0.02116 -0.49414,0.03124 -0.88253,0.04478 -0.26009,0.0091 -1.04068,0.02029 -0.78044,0.02176 2.96242,0.01641 5.92489,0.01274 8.88733,0.02329 0.5401,0.0017 -1.08023,0.0082 -1.62031,0.0028 -0.66677,-0.0069 -1.33335,-0.02703 -2.00003,-0.04057 -5.83565,-0.25248 -11.67427,-0.80044 -17.35942,-2.205211 -0.99824,-0.278705 -2.00692,-0.522394 -2.99471,-0.836115 -4.20083,-1.33416 -8.24259,-3.322058 -11.31659,-6.54205 -0.48199,-0.584016 -0.99462,-1.144047 -1.44597,-1.752054 -2.33684,-3.147922 -3.75725,-6.841708 -4.54763,-10.65906 -0.11924,-0.749522 -0.26129,-1.495766 -0.35773,-2.248557 -0.4461,-3.48209 -0.35784,-7.018266 0.1993,-10.481558 0.36521,-1.997104 0.76193,-3.965122 1.33787,-5.914535 0.14802,-0.501011 0.75705,-2.308333 0.92807,-2.941332 0.0833,-0.308444 0.13684,-0.624192 0.20526,-0.936283 0.0306,-0.207691 0.38217,-2.54458 0.2155,-2.56503 -9.83901,-1.207009 -9.04248,-3.377496 -11.35894,0.454411 -2.23088,3.639149 -4.8575,7.016776 -7.69629,10.201644 -2.03279,2.228802 -2.83221,3.171072 -5.03734,5.308022 -4.276,4.143801 -8.93898,7.887512 -13.96612,11.08333 -3.49471,2.138448 -4.38747,2.760712 -8.07864,4.699393 -6.26302,3.289479 -12.815395,6.006363 -19.581181,8.077465 -1.677506,0.495573 -3.34634,1.021486 -5.032512,1.486735 -6.211038,1.713755 -12.543255,3.117737 -18.961608,3.757671 0,0 10.499335,1.524851 10.499335,1.524851 z"
       inkscape:export-filename="/home/gauteh/met/sfy/sfy-code/hardware/logo/text7465.png"
       inkscape:export-xdpi="96"
       inkscape:export-ydpi="96" />
    <path
       style="fill:#000000;fill-opacity:1;fill-rule:nonzero;stroke:none;stroke-width:0.571221"
       id="path2231"
       d="m 36.792057,78.476293 c 5.585431,-3.006709 10.995281,-6.340756 16.469473,-9.546216 1.711401,-1.040405 3.422626,-2.081108 5.134211,-3.121211 4.98421,-3.028832 5.351071,-3.207917 10.255247,-6.353233 4.631897,-2.970694 9.173666,-6.06448 13.700505,-9.191553 6.935382,-4.818549 13.710684,-9.864188 20.212157,-15.254459 1.60204,-1.348178 3.19775,-2.704254 4.74381,-4.116637 0.26535,-0.242415 0.52319,-0.49301 0.78966,-0.734201 0.17131,-0.155056 0.31552,-0.353735 0.52351,-0.4544 0.0954,-0.04616 0.20938,0.03269 0.31405,0.04903 -3.51374,-0.04359 -7.03318,-0.335409 -10.541235,-0.130746 -0.247733,0.01447 0.04873,0.495189 0.04234,0.743263 -0.01511,0.590382 -0.07552,1.178759 -0.106998,1.768495 -0.09556,1.790646 -0.283241,5.513118 -0.265401,7.120682 0.01749,1.579067 0.141303,3.15517 0.211944,4.732753 0.28625,1.70393 0.420282,3.440546 0.858738,5.111797 1.571652,5.990565 4.611222,10.7675 9.236642,14.883075 4.01132,3.569169 5.96576,4.274314 10.61966,6.776417 7.11274,2.669393 3.61296,1.558293 10.47763,3.400926 0,0 8.33683,-1.112402 8.33683,-1.112402 v 0 c -7.18506,-1.661003 -3.55321,-0.628149 -10.87923,-3.155318 -4.64087,-2.370392 -6.62148,-3.016396 -10.58195,-6.511792 -4.43212,-3.911673 -7.37809,-8.647863 -8.72903,-14.407975 -0.38368,-1.635961 -0.44481,-3.331128 -0.66722,-4.996695 0.0275,-1.549051 -0.0302,-3.101962 0.0825,-4.647144 0.20147,-2.760514 0.61493,-4.435978 1.2668,-7.026554 0.15419,-0.612804 0.35025,-1.214576 0.50395,-1.827503 0.0947,-0.377751 0.62434,-1.074383 0.24102,-1.143215 -3.52251,-0.632539 -7.14081,-0.491285 -10.711215,-0.736928 -0.322398,0.541168 -0.726281,1.026339 -1.135405,1.504786 -1.23405,1.443131 -2.565408,2.800262 -3.937099,4.112161 -0.769149,0.70168 -1.524053,1.419296 -2.307444,2.105038 -5.403965,4.730387 -11.277314,8.883841 -17.054282,13.13631 -3.356867,2.418327 -5.0327,3.658975 -8.496238,6.013242 -6.599767,4.486041 -13.407206,8.668705 -20.352966,12.595951 -5.294019,2.937441 -10.612569,5.909113 -16.228429,8.202629 -1.27516,0.520777 -1.534763,0.578985 -2.609016,0.896201 0,0 10.582426,1.315427 10.582426,1.315427 z"
       inkscape:export-filename="/home/gauteh/met/sfy/sfy-code/hardware/logo/text7465.png"
       inkscape:export-xdpi="96"
       inkscape:export-ydpi="96" />
    <rect
       style="fill:#000000;stroke-width:0.571221"
       id="rect2739"
       width="7.0776734"
       height="7.1773887"
       x="109.48368"
       y="-42.921852"
       transform="rotate(28.82722)"
       inkscape:export-filename="/home/gauteh/met/sfy/sfy-code/hardware/logo/text7465.png"
       inkscape:export-xdpi="96"
       inkscape:export-ydpi="96" />
    <rect
       style="fill:#000000;stroke-width:0.571221"
       id="rect2739-6"
       width="7.0776734"
       height="7.1773887"
       x="116.56136"
       y="-35.744465"
       transform="rotate(28.82722)"
       inkscape:export-filename="/home/gauteh/met/sfy/sfy-code/hardware/logo/text7465.png"
       inkscape:export-xdpi="96"
       inkscape:export-ydpi="96" />
    <rect
       style="fill:#000000;stroke-width:0.571221"
       id="rect2739-6-5"
       width="7.0776734"
       height="7.1773887"
       x="153.87981"
       y="-46.334297"
       transform="rotate(28.82722)"
       inkscape:export-filename="/home/gauteh/met/sfy/sfy-code/hardware/logo/text7465.png"
       inkscape:export-xdpi="96"
       inkscape:export-ydpi="96" />
    <rect
       style="fill:#000000;stroke-width:0.571221"
       id="rect2739-6-5-0"
       width="7.0776734"
       height="7.1773887"
       x="160.68964"
       y="-55.052559"
       transform="rotate(28.82722)"
       inkscape:export-filename="/home/gauteh/met/sfy/sfy-code/hardware/logo/text7465.png"
       inkscape:export-xdpi="96"
       inkscape:export-ydpi="96" />
    <rect
       style="fill:#000000;stroke-width:0.571221"
       id="rect2739-6-9"
       width="7.0776734"
       height="7.1773887"
       x="123.63902"
       y="-42.921852"
       transform="rotate(28.82722)"
       inkscape:export-filename="/home/gauteh/met/sfy/sfy-code/hardware/logo/text7465.png"
       inkscape:export-xdpi="96"
       inkscape:export-ydpi="96" />
    <rect
       style="fill:#ffffff;fill-opacity:1;stroke-width:0.571221"
       id="rect2739-6-9-8"
       width="7.0776734"
       height="7.1773887"
       x="87.209099"
       y="-45.399059"
       transform="rotate(48.335885)"
       inkscape:export-filename="/home/gauteh/met/sfy/sfy-code/hardware/logo/text7465.png"
       inkscape:export-xdpi="96"
       inkscape:export-ydpi="96" />
    <rect
       style="fill:#ffffff;fill-opacity:1;stroke-width:0.571221"
       id="rect2739-6-9-8-7"
       width="7.0776734"
       height="7.1773887"
       x="144.26463"
       y="-74.371895"
       transform="rotate(48.335885)"
       inkscape:export-filename="/home/gauteh/met/sfy/sfy-code/hardware/logo/text7465.png"
       inkscape:export-xdpi="96"
       inkscape:export-ydpi="96" />
    <rect
       style="fill:#ffffff;fill-opacity:1;stroke-width:0.571221"
       id="rect2739-6-9-8-2"
       width="7.0776734"
       height="7.1773887"
       x="85.762581"
       y="-32.911068"
       transform="rotate(48.335885)"
       inkscape:export-filename="/home/gauteh/met/sfy/sfy-code/hardware/logo/text7465.png"
       inkscape:export-xdpi="96"
       inkscape:export-ydpi="96" />
    <rect
       style="fill:#ffffff;fill-opacity:1;stroke-width:0.636229"
       id="rect2739-6-9-8-2-0"
       width="7.9725623"
       height="7.9045572"
       x="141.69891"
       y="-80.133095"
       transform="matrix(0.5901456,0.80729683,-0.67833042,0.734757,0,0)"
       inkscape:export-filename="/home/gauteh/met/sfy/sfy-code/hardware/logo/text7465.png"
       inkscape:export-xdpi="96"
       inkscape:export-ydpi="96" />
    <rect
       style="fill:#000000;stroke-width:0.571221"
       id="rect2739-0"
       width="7.0776734"
       height="7.1773887"
       x="104.90855"
       y="-26.89666"
       transform="rotate(24.251679)"
       inkscape:export-filename="/home/gauteh/met/sfy/sfy-code/hardware/logo/text7465.png"
       inkscape:export-xdpi="96"
       inkscape:export-ydpi="96" />
    <text
       xml:space="preserve"
       style="font-size:22.8488px;line-height:1.25;font-family:sans-serif;word-spacing:0px;stroke-width:0.571221"
       x="66.814964"
       y="74.526581"
       id="text7465"
       inkscape:export-filename="/home/gauteh/met/sfy/sfy-code/hardware/logo/text7465.png"
       inkscape:export-xdpi="96"
       inkscape:export-ydpi="96"><tspan
         sodipodi:role="line"
         id="tspan7463"
         style="font-style:normal;font-variant:normal;font-weight:bold;font-stretch:normal;font-family:Inconsolata;-inkscape-font-specification:'Inconsolata Bold';stroke-width:0.571221"
         x="66.814964"
         y="74.526581">sfy</tspan></text>
  </g>
</svg>
